<?xml version="1.0" encoding="UTF-8" standalone="no"?>
<!-- Created with Inkscape (http://www.inkscape.org/) -->

<svg
   width="81.639206mm"
   height="77.966148mm"
   viewBox="0 0 81.639206 77.966148"
   version="1.1"
   id="svg1"
   xml:space="preserve"
   xmlns:inkscape="http://www.inkscape.org/namespaces/inkscape"
   xmlns:sodipodi="http://sodipodi.sourceforge.net/DTD/sodipodi-0.dtd"
   xmlns="http://www.w3.org/2000/svg"
   xmlns:svg="http://www.w3.org/2000/svg"><sodipodi:namedview
     id="namedview1"
     pagecolor="#ffffff"
     bordercolor="#000000"
     borderopacity="0.25"
     inkscape:showpageshadow="2"
     inkscape:pageopacity="0.0"
     inkscape:pagecheckerboard="0"
     inkscape:deskcolor="#d1d1d1"
     inkscape:document-units="mm" /><defs
     id="defs1" /><g
     inkscape:label="Layer 1"
     inkscape:groupmode="layer"
     id="layer1"
     transform="translate(-274.64136,-40.315142)"><path
       style="fill:#000000;stroke-width:1.22539"
       d="m 274.59909,87.492574 0.002,-30.277545 6.69432,-8.100908 6.69432,-8.100896 h 34.21143 34.21144 v 38.378441 38.378444 h -40.90819 -40.90793 z m 53.37874,20.573896 v -0.58876 h -4.57924 -4.57925 v 0.58876 0.58876 h 4.57925 4.57924 z m -31.44415,-2.55262 c 1.80939,-0.18962 3.01485,-1.35422 3.33916,-3.22594 0.10134,-0.58482 0.067,-1.8739 -0.0635,-2.389669 -0.40743,-1.609264 -1.45233,-2.505487 -3.118,-2.674357 -1.75563,-0.177988 -3.21126,0.563052 -3.90774,1.989378 -0.64225,1.315248 -0.6386,3.200638 0.009,4.513838 0.19274,0.39099 0.28027,0.51242 0.59887,0.83082 0.31258,0.31239 0.44036,0.40538 0.78744,0.57306 0.4757,0.22981 0.81562,0.32953 1.29645,0.38038 0.48226,0.051 0.59354,0.0512 1.05859,0.002 z m -0.79533,-1.22124 c -1.18047,-0.19877 -1.84469,-1.09433 -1.93546,-2.60955 -0.11715,-1.954584 0.79451,-3.243348 2.29467,-3.244108 0.47304,-2.32e-4 0.73623,0.05232 1.08527,0.216624 0.3205,0.150894 0.74117,0.572391 0.91504,0.916822 0.50109,0.992632 0.49005,2.619042 -0.0244,3.598072 -0.44277,0.84257 -1.36459,1.28556 -2.3351,1.12214 z m 9.02016,1.21925 c 0.40345,-0.0561 0.80012,-0.19393 1.13564,-0.39454 0.29119,-0.17412 0.86428,-0.69915 1.04014,-0.95292 0.0895,-0.12907 0.13427,-0.16351 0.15999,-0.12295 0.0196,0.031 0.036,0.34581 0.0364,0.69962 l 6.8e-4,0.64327 h 0.65417 0.65419 V 99.7366 94.088867 h -0.7196 -0.7196 v 1.670582 1.670594 l -0.38161,-0.08149 c -0.52295,-0.111632 -1.59471,-0.118249 -2.08246,-0.01287 -1.33025,0.28739 -2.25453,1.088707 -2.7014,2.341983 -0.205,0.574954 -0.28601,1.107944 -0.28601,1.881814 0,2.31985 0.84772,3.72771 2.3789,3.95084 0.37019,0.0539 0.45269,0.054 0.83057,0.001 z m -0.56231,-1.28079 c -0.51637,-0.18418 -0.84782,-0.63138 -1.04447,-1.40923 -0.0841,-0.33266 -0.0966,-0.49812 -0.0972,-1.29714 -6.7e-4,-0.73468 0.0148,-0.98275 0.0784,-1.254 0.22156,-0.944445 0.80208,-1.554234 1.67604,-1.760565 0.53866,-0.127158 1.56944,-0.02426 2.07809,0.207532 l 0.11334,0.05171 v 1.840003 1.84 l -0.22684,0.29965 c -0.54599,0.72124 -1.20419,1.2977 -1.66773,1.46063 -0.27837,0.0978 -0.66974,0.10709 -0.90976,0.0214 z m 11.89739,1.21634 c 0.26385,-0.0336 0.6809,-0.1033 0.92676,-0.15495 l 0.44702,-0.094 v -0.60782 c 0,-0.55876 -0.006,-0.60592 -0.0763,-0.58431 -0.19667,0.0607 -0.69065,0.16136 -1.12484,0.22943 -0.68384,0.10722 -1.94707,0.10722 -2.32791,-2e-5 -1.04399,-0.2939 -1.59959,-0.97911 -1.72973,-2.13326 l -0.0283,-0.25077 h 2.86158 2.86161 v -0.76725 c 0,-0.84226 -0.0784,-1.371101 -0.27886,-1.881781 -0.39323,-1.001582 -1.20193,-1.673621 -2.30829,-1.918196 -0.42431,-0.09374 -1.39271,-0.09374 -1.77622,2.5e-5 -1.11118,0.271815 -1.9341,0.958987 -2.42765,2.027218 -0.27026,0.584926 -0.3702,1.067694 -0.39418,1.903984 -0.0236,0.82627 0.0268,1.3238 0.19281,1.8986 0.26431,0.91538 0.81863,1.60665 1.58884,1.98133 0.48198,0.23447 0.95097,0.36267 1.52505,0.4169 0.49662,0.0469 1.41469,0.018 2.0686,-0.0652 z m -3.87471,-4.89309 c 0.13546,-0.960747 0.61185,-1.70066 1.30331,-2.024236 0.71102,-0.332729 1.7339,-0.158479 2.28096,0.388583 0.35541,0.355411 0.6147,1.024692 0.61678,1.592043 l 7.6e-4,0.20717 h -2.11244 -2.11242 z m -23.23005,4.85312 c 0.20388,-0.0382 0.54241,-0.12094 0.7523,-0.18398 l 0.38161,-0.11457 v -0.66911 c 0,-0.36801 -0.011,-0.66911 -0.0241,-0.66911 -0.0134,0 -0.16419,0.0596 -0.33531,0.13238 -0.68319,0.29072 -1.52814,0.425 -2.19737,0.34919 -0.69812,-0.079 -1.17388,-0.29541 -1.58011,-0.71846 -0.46719,-0.48654 -0.65681,-1.00759 -0.69215,-1.90198 -0.0297,-0.75101 0.0463,-1.16786 0.31387,-1.721881 0.31234,-0.646747 0.84211,-1.11346 1.51356,-1.333417 0.27508,-0.09007 0.3985,-0.104035 0.88652,-0.100359 0.72457,0.0049 1.25291,0.129278 2.0618,0.483096 0.0441,0.01924 0.0532,-0.11923 0.0436,-0.666328 l -0.0122,-0.690665 -0.20682,-0.07671 c -0.51214,-0.190033 -1.06719,-0.267772 -1.93016,-0.270345 -0.71905,-0.0025 -0.87983,0.01103 -1.21577,0.09521 -0.41991,0.105873 -0.99587,0.35769 -1.30544,0.570674 -1.07944,0.742683 -1.68614,2.015492 -1.68708,3.539415 -0.001,2.34031 1.11524,3.71809 3.24883,4.00839 0.42021,0.0571 1.53563,0.0227 1.98434,-0.0614 z m 0.10906,-13.369209 c 0.28784,-0.02365 0.68524,-0.07512 0.88313,-0.114328 l 0.3598,-0.0712 v -0.629334 c 0,-0.579302 -0.006,-0.627472 -0.0763,-0.605721 -0.22763,0.07046 -0.77653,0.162829 -1.2328,0.207482 -1.22247,0.119598 -1.98346,-0.221758 -2.22299,-0.997244 -0.083,-0.268592 -0.0877,-0.403262 -0.0877,-2.503464 v -2.219617 h 1.8099 1.8099 v -0.610573 -0.610561 h -1.8099 -1.8099 v -1.264746 c 0,-1.034116 -0.011,-1.264746 -0.0591,-1.264746 -0.0325,0 -0.29249,0.06029 -0.57786,0.133898 -0.28536,0.07365 -0.59243,0.152891 -0.68239,0.176125 l -0.16354,0.04228 v 1.088622 1.088609 h -1.13391 -1.13391 v 0.610561 0.610573 h 1.13391 1.1339 v 2.088745 c 0,2.245974 0.0328,2.801136 0.19387,3.277088 0.42029,1.242272 1.58233,1.739191 3.66579,1.567576 z m 5.21161,-2.747561 v -2.661209 l 0.40077,-0.441078 c 0.77254,-0.850271 1.20552,-1.128606 1.80709,-1.161667 0.69484,-0.03823 1.10493,0.240434 1.33448,0.906725 0.0967,0.280614 0.0978,0.31256 0.11139,3.150959 l 0.0137,2.867491 h 0.71974 0.71976 l -0.0152,-3.041937 c -0.0138,-2.767364 -0.0223,-3.06751 -0.0937,-3.325405 -0.31819,-1.148089 -1.06139,-1.747499 -2.25048,-1.815067 -0.96188,-0.05465 -1.65965,0.222273 -2.44103,0.968791 l -0.32858,0.313919 0.0158,-2.19789 0.0158,-2.19789 h -0.72443 -0.72441 v 5.647733 5.647746 h 0.7196 0.71959 z m 14.26109,2.072459 v -0.588761 h -1.19932 -1.19934 v -3.445346 -3.445334 h -1.94073 -1.94072 v 0.610561 0.610574 h 1.19933 1.19932 v 2.834772 2.834773 h -1.33016 -1.33017 v 0.588761 0.588762 h 3.2709 3.27089 z m 3.92538,-2.082471 3.2e-4,-2.671232 0.39359,-0.446164 c 0.44892,-0.508903 0.82899,-0.833851 1.17581,-1.005282 0.21494,-0.106241 0.28739,-0.118618 0.69777,-0.118618 0.38654,0 0.48513,0.0147 0.63237,0.09435 0.20815,0.112491 0.41893,0.328134 0.52605,0.538067 0.20215,0.396217 0.2074,0.476688 0.22561,3.45624 l 0.0173,2.823879 h 0.71674 0.71676 v -2.75959 c 0,-1.566767 -0.0189,-2.919337 -0.0436,-3.12916 -0.14605,-1.236133 -0.72038,-1.96949 -1.74442,-2.227434 -0.31414,-0.07916 -1.21368,-0.07892 -1.52642,4.05e-4 -0.55035,0.139547 -1.06027,0.453699 -1.58,0.973422 l -0.3389,0.338905 v -0.364307 c 0,-0.200363 -0.0126,-0.484935 -0.0281,-0.632373 l -0.0281,-0.268066 h -0.64796 -0.64796 v 4.034095 4.034108 h 0.74139 0.74141 z m 9.25588,0.561742 0.011,-2.109479 1.85351,2.109307 1.85351,2.109307 0.99533,1.72e-4 0.99533,1.84e-4 -0.0795,-0.10036 c -0.0437,-0.05526 -0.93319,-1.018026 -1.97659,-2.139586 -1.04342,-1.121572 -1.90283,-2.055157 -1.90981,-2.074641 -0.007,-0.01948 0.83202,-0.855944 1.86442,-1.858788 1.03239,-1.002857 1.87708,-1.83944 1.87708,-1.859083 0,-0.01961 -0.41695,-0.03578 -0.92656,-0.03578 h -0.92655 l -1.821,1.820606 -1.82099,1.820594 v -3.434232 -3.434244 h -0.71959 -0.7196 v 5.647733 5.647746 h 0.71918 0.71918 z M 305.6922,82.67678 c 0.4906,-0.200105 0.76639,-0.828912 0.6029,-1.374614 -0.0588,-0.196344 -0.33653,-0.531315 -0.51849,-0.6254 -0.68056,-0.351944 -1.49523,0.01446 -1.65897,0.746076 -0.20055,0.896174 0.69776,1.611567 1.57456,1.253938 z m -7.89332,-4.090262 c 0.51582,-0.06041 0.99674,-0.146715 1.36244,-0.244685 l 0.16356,-0.04387 v -0.587082 c 0,-0.328759 -0.0177,-0.587083 -0.0402,-0.587083 -0.022,0 -0.20363,0.03835 -0.40341,0.08516 -1.00816,0.236524 -2.4513,0.312486 -3.06436,0.161322 -1.0906,-0.268935 -1.67644,-0.998003 -1.78379,-2.219983 l -0.0183,-0.207152 h 2.84715 2.84715 l 0.0312,-0.417281 c 0.035,-0.468294 -0.0295,-1.295123 -0.13268,-1.697896 -0.31946,-1.247063 -1.10698,-2.059556 -2.31092,-2.384222 -0.51992,-0.140196 -1.6033,-0.141581 -2.08462,-0.0025 -1.68343,0.485878 -2.69159,2.02451 -2.69063,4.106332 6e-4,1.263827 0.28853,2.246489 0.86035,2.936075 0.48117,0.580294 1.2724,0.985909 2.18411,1.119648 0.4118,0.06041 1.65276,0.0511 2.23274,-0.01679 z m -3.75105,-4.872504 c 0,-0.229331 0.13025,-0.69151 0.28971,-1.027989 0.41146,-0.868236 1.21507,-1.310294 2.15182,-1.183712 1.02495,0.138506 1.74522,0.995431 1.74522,2.076332 v 0.274315 h -2.09338 -2.09337 z m -8.18488,3.388034 c 0.14183,-0.407772 0.44027,-1.278176 0.6632,-1.934248 l 0.40534,-1.19284 0.1562,0.495056 c 0.0859,0.272281 0.38789,1.142685 0.67107,1.934236 l 0.51487,1.439192 0.85809,0.01225 0.85809,0.01225 0.0223,-0.09901 c 0.0122,-0.05453 0.26792,-1.747572 0.56817,-3.762439 0.30026,-2.014866 0.55605,-3.707554 0.56841,-3.761532 l 0.0224,-0.09815 h -0.72043 c -0.67145,0 -0.72043,0.0049 -0.72043,0.08051 0,0.07034 -0.60643,5.336596 -0.68127,5.916081 l -0.0282,0.218057 -0.0805,-0.218057 c -0.0442,-0.119965 -0.3929,-1.081575 -0.7748,-2.136976 l -0.69436,-1.918931 -0.52367,-0.01225 -0.52367,-0.01225 -0.70775,2.127394 c -0.38926,1.17006 -0.71819,2.145554 -0.73097,2.167758 -0.0197,0.03419 -0.32838,-2.309499 -0.71332,-5.415535 l -0.0986,-0.795913 h -0.68862 c -0.62681,0 -0.68862,0.0074 -0.68851,0.07634 1.4e-4,0.0832 1.07429,7.326795 1.11573,7.523972 l 0.0254,0.120823 0.83393,-0.01225 0.83394,-0.01225 z"
       id="path1" /></g></svg>
